# xmcd CD database file
#
# Track frame offsets:
#	150
#	13562
#	24275
#	40695
#	49030
#	75392
#	82930
#	101307
#	113007
#	126795
#	158375
#	169817
#	186175
#	209855
#	222265
#	256892
#	271527
#
# Disc length: 3839 seconds
#
# Revision: 7
# Processed by: cddbd v1.5.2PL0 Copyright (c) Steve Scherf et al.
# Submitted via: CDex 1.51
#
DISCID=c80efd11
DTITLE=Rachmaninoff - Études-tableaux Op.33 and 39  (Nikolai Lugansky, piano)
DYEAR=2008
DGENRE=Classique
TTITLE0=Études-tableaux Op.33 - Allegro non troppo in F minor, N°1
TTITLE1=Études-tableaux Op.33 - Allegro in C major, N°2
TTITLE2=Études-tableaux Op.33 - Moderato in D minor, N°5
TTITLE3=Études-tableaux Op.33 - Allegro con fuoco in E flat major, N°7
TTITLE4=Études-tableaux Op.33 - Grave in C minor, N°3
TTITLE5=Études-tableaux Op.33 - Non allegro in E flat minor, N°6
TTITLE6=Études-tableaux Op.33 - Moderato in G minor, N°8
TTITLE7=Études-tableaux Op.33 - Grave in C sharp minor N°9
TTITLE8=Études-tableaux Op.39 - Allegro agitato in C minor, N°1
TTITLE9=Études-tableaux Op.39 - Lento assai in A minor, N°2
TTITLE10=Études-tableaux Op.39 - Allegro molto in F sharp minor, N°3
TTITLE11=Études-tableaux Op.39 - Allegro assai in B minor, N°4
TTITLE12=Études-tableaux Op.39 - Appassionato in E flat minor, N°5
TTITLE13=Études-tableaux Op.39 - Allegro in A minor, N°6
TTITLE14=Études-tableaux Op.39 - Lento lugubre in C minor, N°7
TTITLE15=Études-tableaux Op.39 - Allegro moderato in D minor, N°8
TTITLE16=Études-tableaux Op.39 - Allegro moderato - Tempo di marcia in D major, N°9
EXTD=YEAR: 2008
EXTT0=
EXTT1=
EXTT2=
EXTT3=
EXTT4=
EXTT5=
EXTT6=
EXTT7=
EXTT8=
EXTT9=
EXTT10=
EXTT11=
EXTT12=
EXTT13=
EXTT14=
EXTT15=
EXTT16=
PLAYORDER=
